<svg width="168" height="34" viewBox="0 0 168 34" fill="none" xmlns="http://www.w3.org/2000/svg">
<path d="M13.8835 15.3C14.5827 14.6333 15.3651 14.0167 16.2307 13.45C16.9965 12.9833 17.9121 12.55 18.9775 12.15C20.0429 11.75 21.2414 11.55 22.5732 11.55C24.1713 11.55 25.3532 11.9167 26.119 12.65C26.918 13.3833 27.3675 14.2833 27.4674 15.35H27.767C28.5328 14.65 29.3651 14.0167 30.264 13.45C31.0298 12.9833 31.9287 12.55 32.9608 12.15C33.9929 11.75 35.0916 11.55 36.2569 11.55C37.9882 11.55 39.3865 12.0333 40.4519 13C41.5506 13.9333 42.1 15.15 42.1 16.65C42.1 17.4167 41.9668 18.4333 41.7005 19.7C41.4341 20.9667 41.1345 22.35 40.8015 23.85L38.704 33.6H28.8657L31.5625 20.55C31.6624 20.05 31.7623 19.5667 31.8621 19.1C31.962 18.6333 32.012 18.25 32.012 17.95C32.012 17.4833 31.8788 17.1 31.6124 16.8C31.3461 16.4667 30.9632 16.3 30.4638 16.3C29.8312 16.3 29.2319 16.5333 28.6659 17C28.1332 17.4333 27.7171 17.8 27.4174 18.1L24.1713 33.6H14.8324L17.5791 20.55C17.6457 20.1167 17.7289 19.6833 17.8288 19.25C17.9287 18.7833 17.9786 18.3667 17.9786 18C17.9786 17.5 17.8455 17.1 17.5791 16.8C17.3461 16.4667 16.9798 16.3 16.4804 16.3C15.8811 16.3 15.2985 16.5167 14.7325 16.95C14.1998 17.3833 13.7836 17.75 13.484 18.05L10.1879 33.6H0L4.5446 12.1H12.6849L13.5839 15.3H13.8835Z" fill="#2B2B2B"/>
<path d="M54.4018 23.55C54.2686 24.2833 54.1687 24.9833 54.1021 25.65C54.0688 26.3167 54.0522 26.9167 54.0522 27.45C54.0522 27.75 54.0688 28.0833 54.1021 28.45C54.1354 28.8167 54.202 29.1667 54.3019 29.5C54.4351 29.8 54.6015 30.0667 54.8013 30.3C55.0343 30.5 55.3506 30.6 55.7502 30.6C56.0498 30.6 56.3827 30.5 56.749 30.3C57.1485 30.1 57.5314 29.8167 57.8976 29.45C58.2971 29.0833 58.6634 28.6333 58.9963 28.1C59.3625 27.5667 59.6455 26.9667 59.8453 26.3H68.0356L66.7371 31.65C66.0712 32.0833 65.3055 32.45 64.4398 32.75C63.5742 33.05 62.6586 33.3 61.6931 33.5C60.7276 33.6667 59.7454 33.7833 58.7466 33.85C57.7478 33.95 56.7989 34 55.9 34C54.2353 34 52.6871 33.85 51.2555 33.55C49.8239 33.25 48.5754 32.7333 47.51 32C46.4446 31.2667 45.5956 30.3 44.963 29.1C44.3637 27.8667 44.0641 26.35 44.0641 24.55C44.0641 22.9167 44.3138 21.3167 44.8132 19.75C45.3459 18.1833 46.2115 16.8 47.4101 15.6C48.6419 14.3667 50.2733 13.3833 52.3043 12.65C54.3685 11.9167 56.9321 11.55 59.9951 11.55C63.3245 11.55 65.8215 12.0667 67.4862 13.1C69.1842 14.1333 70.0332 15.75 70.0332 17.95C70.0332 18.85 69.9 19.8333 69.6337 20.9C69.3673 21.9333 68.9678 22.8167 68.4351 23.55H54.4018ZM61.0439 17.6C61.0439 16.5667 60.8774 15.8667 60.5445 15.5C60.2115 15.1333 59.812 14.95 59.3459 14.95C58.8132 14.95 58.3138 15.1333 57.8477 15.5C57.4149 15.8333 57.0153 16.3 56.6491 16.9C56.2829 17.4667 55.9499 18.1333 55.6503 18.9C55.3506 19.6333 55.1009 20.4167 54.9012 21.25H60.5944C60.661 20.85 60.7276 20.4333 60.7942 20C60.8608 19.6333 60.9107 19.2333 60.944 18.8C61.0106 18.3667 61.0439 17.9667 61.0439 17.6Z" fill="#2B2B2B"/>
<path d="M74.8712 12.1H83.0115L83.7606 15.85H84.1102C84.876 14.65 85.8581 13.6333 87.0567 12.8C88.2553 11.9667 89.8368 11.55 91.8011 11.55C91.9343 11.55 92.134 11.5667 92.4004 11.6C92.7 11.6 93.0163 11.65 93.3492 11.75C93.7155 11.8167 94.0817 11.9333 94.4479 12.1C94.8475 12.2333 95.2303 12.4333 95.5966 12.7L93.3992 23H87.9557C87.8891 20.9333 87.7059 19.5 87.4063 18.7C87.1067 17.8667 86.6239 17.45 85.958 17.45C85.6251 17.45 85.2589 17.5333 84.8593 17.7C84.4931 17.8333 84.1102 18.15 83.7107 18.65L80.5145 33.6H70.3266L74.8712 12.1Z" fill="#2B2B2B"/>
<path d="M98.563 13.95C100.261 13.1167 101.992 12.5167 103.757 12.15C105.555 11.75 107.552 11.55 109.75 11.55C111.88 11.55 113.645 11.7167 115.043 12.05C116.442 12.3833 117.557 12.8667 118.389 13.5C119.222 14.1333 119.804 14.8833 120.137 15.75C120.47 16.6167 120.637 17.6 120.637 18.7C120.637 19.3333 120.587 20.0167 120.487 20.75C120.42 21.4833 120.337 22.1 120.237 22.6L117.89 33.6H109.85L108.951 30.4H108.651C107.586 31.5667 106.337 32.4667 104.905 33.1C103.507 33.7 102.109 34 100.71 34C99.9114 34 99.129 33.8833 98.3632 33.65C97.5974 33.4167 96.9149 33.0667 96.3156 32.6C95.7163 32.1 95.2336 31.4833 94.8674 30.75C94.5011 29.9833 94.318 29.0667 94.318 28C94.318 26.2667 94.7841 24.9 95.7164 23.9C96.6819 22.8667 97.9304 22.1 99.4619 21.6C101.027 21.0667 102.775 20.7333 104.706 20.6C106.67 20.4667 108.634 20.4 110.599 20.4C110.665 20.0667 110.748 19.6 110.848 19C110.948 18.3667 110.998 17.8167 110.998 17.35C110.998 16.75 110.832 16.2 110.499 15.7C110.199 15.1667 109.55 14.9 108.551 14.9C107.386 14.9 106.52 15.25 105.954 15.95C105.421 16.6167 105.072 17.4333 104.905 18.4H97.6141L98.563 13.95ZM110.049 22.75H109.15C108.185 22.75 107.353 22.8833 106.653 23.15C105.987 23.3833 105.438 23.7 105.005 24.1C104.606 24.5 104.306 24.95 104.106 25.45C103.907 25.95 103.807 26.45 103.807 26.95C103.807 27.75 104.006 28.35 104.406 28.75C104.839 29.15 105.338 29.35 105.904 29.35C106.603 29.35 107.286 29.1 107.952 28.6C108.651 28.1 109.084 27.4333 109.25 26.6L110.049 22.75Z" fill="#2B2B2B"/>
<path d="M134.858 21.2L146.494 12.1H153.086L143.148 20.25L150.589 33.6H139.402L134.308 23.55L132.211 33.6H122.023L129.115 0H139.352L134.858 21.2Z" fill="#2B2B2B"/>
<path d="M162.057 33.6H151.919L156.464 12.1H166.702L162.057 33.6ZM168 5.55C168 6.31667 167.834 6.98333 167.501 7.55C167.201 8.11667 166.785 8.6 166.252 9C165.753 9.4 165.17 9.7 164.504 9.9C163.838 10.1 163.156 10.2 162.457 10.2C161.125 10.2 160.009 9.88334 159.111 9.25C158.212 8.61667 157.762 7.61667 157.762 6.25C157.762 5.51667 157.912 4.86667 158.212 4.3C158.511 3.7 158.911 3.21667 159.41 2.85C159.943 2.45 160.542 2.15 161.208 1.95C161.907 1.75 162.623 1.65 163.356 1.65C164.654 1.65 165.753 1.96667 166.652 2.6C167.551 3.23334 168 4.21667 168 5.55Z" fill="#2B2B2B"/>
</svg>
